<svg width="16" height="12" viewBox="0 0 16 12" fill="none" xmlns="http://www.w3.org/2000/svg">
  <path fill-rule="evenodd" clip-rule="evenodd" d="M8.0001 2.19995C10.2091 2.19995 12.2001 3.0363 13.6501 4.4863L14.7201 3.4163C13.0001 1.6963 10.6501 0.699951 8.0001 0.699951C5.3501 0.699951 3.0001 1.6963 1.2801 3.4163L2.3501 4.4863C3.8001 3.0363 5.7911 2.19995 8.0001 2.19995ZM8.0001 6.19995C9.2091 6.19995 10.2911 6.6863 11.1001 7.4863L12.1701 6.4163C11.1001 5.3463 9.6501 4.69995 8.0001 4.69995C6.3501 4.69995 4.9001 5.3463 3.8301 6.4163L4.9001 7.4863C5.7091 6.6863 6.7911 6.19995 8.0001 6.19995ZM8.0001 10.2C8.5501 10.2 9.0001 9.75 9.0001 9.2C9.0001 8.65 8.5501 8.2 8.0001 8.2C7.4501 8.2 7.0001 8.65 7.0001 9.2C7.0001 9.75 7.4501 10.2 8.0001 10.2Z" fill="white"/>
</svg> 