<?xml version="1.0" encoding="UTF-8"?>
<svg width="16" height="12" viewBox="0 0 16 12" fill="none" xmlns="http://www.w3.org/2000/svg">
  <path fill-rule="evenodd" clip-rule="evenodd" d="M8 9.75C8.69036 9.75 9.25 10.3096 9.25 11C9.25 11.6904 8.69036 12.25 8 12.25C7.30964 12.25 6.75 11.6904 6.75 11C6.75 10.3096 7.30964 9.75 8 9.75Z" fill="white"/>
  <path fill-rule="evenodd" clip-rule="evenodd" d="M4.5 7.25C4.5 5.45507 6.11929 4 8 4C9.88071 4 11.5 5.45507 11.5 7.25H13.5C13.5 4.35786 11.0899 2 8 2C4.91015 2 2.5 4.35786 2.5 7.25H4.5Z" fill="white"/>
  <path fill-rule="evenodd" clip-rule="evenodd" d="M0.5 4.25C0.5 1.35786 3.85786 -1 8 -1C12.1421 -1 15.5 1.35786 15.5 4.25H13.5C13.5 2.45507 11.0899 1 8 1C4.91015 1 2.5 2.45507 2.5 4.25H0.5Z" fill="white"/>
</svg> 